<?xml version="1.0" standalone="no"?>
<!DOCTYPE svg PUBLIC "-//W3C//DTD SVG 1.1//EN" "http://www.w3.org/Graphics/SVG/1.1/DTD/svg11.dtd">
<svg width="100%" height="100%" viewBox="0 0 916 154" version="1.1" xmlns="http://www.w3.org/2000/svg" xmlns:xlink="http://www.w3.org/1999/xlink" xml:space="preserve" style="fill-rule:evenodd;clip-rule:evenodd;stroke-linejoin:round;stroke-miterlimit:1.41421;">
    <g>
        <path d="M212.625,101.667C223.139,101.667 227.806,97.4583 227.806,90.0972C227.806,82.5 222.319,78.7639 211.806,78.7639L197.306,78.7639L197.306,101.667L212.625,101.667ZM211.333,65.3194C221.264,65.3194 225.819,61.5833 225.819,54.9305C225.819,48.1528 221.736,44.4167 211.569,44.4167L197.306,44.4167L197.306,65.3194L211.333,65.3194ZM178.611,29.6806L213.208,29.6806C229.097,29.6806 244.056,33.5417 244.056,51.0694C244.056,63.3333 236.333,69.1806 227.569,70.9305L227.569,71.1667C238.097,73.0417 246.389,78.5278 246.389,92.3194C246.389,109.722 231.083,116.153 214.958,116.153L178.611,116.153L178.611,29.6806Z" style="fill:rgb(33,62,82);fill-rule:nonzero;"/>
        <path d="M298.083,79C297.139,70.2361 293.167,66.0278 286.167,66.0278C280.319,66.0278 275.292,69.8889 273.889,79L298.083,79ZM254.958,85.0694C254.958,60.8889 273.417,52.5833 286.278,52.5833C299.125,52.5833 314.903,59.0139 314.903,87.2917L314.903,90.0972L273.653,90.0972C274.597,100.375 280.319,104.347 288.153,104.347C295.514,104.347 302.403,100.736 306.611,96.875L313.847,108.083C306.611,114.278 297.611,117.444 286.75,117.444C270.5,117.444 254.958,109.139 254.958,85.0694Z" style="fill:rgb(33,62,82);fill-rule:nonzero;"/>
        <path d="M325.681,53.875L344.486,53.875L344.486,64.2778L344.611,64.2778C347.986,59.0139 353.958,52.5833 365.639,52.5833L366.222,52.5833L365.986,69.2917C365.292,69.1806 362.25,68.9444 361.083,68.9444C353.597,68.9444 347.986,72.9167 344.486,77.4722L344.486,116.153L325.681,116.153L325.681,53.875Z" style="fill:rgb(33,62,82);fill-rule:nonzero;"/>
        <rect x="376.167" y="29.6806" width="18.6944" height="86.4722" style="fill:rgb(33,62,82);fill-rule:nonzero;"/>
        <path d="M410.875,53.875L429.556,53.875L429.556,116.153L410.875,116.153L410.875,53.875ZM410.75,30.2778L429.681,30.2778L429.681,45.3472L410.75,45.3472L410.75,30.2778Z" style="fill:rgb(33,62,82);fill-rule:nonzero;"/>
        <path d="M445.306,53.875L464.111,53.875L464.111,63.6944C467.861,58.7778 474.75,52.5833 485.611,52.5833C496.125,52.5833 503.722,57.8472 503.722,70.6944L503.722,116.153L485.028,116.153L485.028,76.6528C485.028,71.0556 482.931,68.125 477.667,68.125C472.653,68.125 468.319,70.6944 464.111,74.3194L464.111,116.153L445.306,116.153L445.306,53.875Z" style="fill:rgb(33,62,82);fill-rule:nonzero;"/>
        <path d="M556.347,79C555.417,70.2361 551.444,66.0278 544.431,66.0278C538.583,66.0278 533.569,69.8889 532.167,79L556.347,79ZM513.236,85.0694C513.236,60.8889 531.694,52.5833 544.556,52.5833C557.403,52.5833 573.181,59.0139 573.181,87.2917L573.181,90.0972L531.931,90.0972C532.861,100.375 538.583,104.347 546.417,104.347C553.778,104.347 560.681,100.736 564.875,96.875L572.125,108.083C564.875,114.278 555.889,117.444 545.014,117.444C528.778,117.444 513.236,109.139 513.236,85.0694Z" style="fill:rgb(33,62,82);fill-rule:nonzero;"/>
        <path d="M585.667,53.875L604.472,53.875L604.472,64.2778L604.597,64.2778C607.986,59.0139 613.944,52.5833 625.625,52.5833L626.208,52.5833L625.972,69.2917C625.278,69.1806 622.236,68.9444 621.069,68.9444C613.583,68.9444 607.986,72.9167 604.472,77.4722L604.472,116.153L585.667,116.153L585.667,53.875Z" style="fill:rgb(33,62,82);fill-rule:nonzero;"/>
        <path d="M645.625,29.6806L664.667,29.6806L664.667,100.736L702.764,100.736L702.764,116.153L645.625,116.153L645.625,29.6806Z" style="fill:rgb(0,155,223);fill-rule:nonzero;"/>
        <path d="M711.264,99.3194L711.264,53.875L730.069,53.875L730.069,93.8333C730.069,99.4444 732.181,102.486 737.431,102.486C742.458,102.486 746.778,99.7917 750.986,96.1667L750.986,53.875L769.806,53.875L769.806,116.153L750.986,116.153L750.986,106.458C747.25,111.25 740.361,117.444 729.486,117.444C718.861,117.444 711.264,112.181 711.264,99.3194Z" style="fill:rgb(0,155,223);fill-rule:nonzero;"/>
        <path d="M870.431,67.5417L870.431,53.875L854.431,53.875L854.431,32.4861L835.736,32.4861L835.736,53.875L809.125,53.875L809.125,50.1389C809.125,43.4722 813.333,42.6528 817.889,42.6528C819.764,42.6528 822.444,42.8889 823.389,43.125L823.389,30.0417C822.333,29.8056 815.667,29.2222 812.042,29.2222C793.583,29.2222 790.431,39.1528 790.431,49.5555L790.431,53.875L780.042,53.875L780.042,67.5417L790.431,67.5417L790.431,116.153L809.125,116.153L809.125,67.5417L835.736,67.5417L835.736,98.625C835.736,110.306 838.417,116.972 856.875,116.972C860.972,116.972 867.861,116.389 869.264,116.042L869.264,102.597C867.986,103.069 865.181,103.306 863.083,103.306C856.292,103.306 854.431,101.194 854.431,94.5417L854.431,67.5417L870.431,67.5417Z" style="fill:rgb(0,155,223);fill-rule:nonzero;"/>
        <path d="M129.167,29.0833L129.167,116.694L116.736,116.694L116.736,41.6528L41.6945,41.6528L41.6945,29.0833L129.167,29.0833Z" style="fill:rgb(33,62,82);fill-rule:nonzero;"/>
        <rect x="22.875" y="54.0417" width="18.7083" height="18.7083" style="fill:rgb(0,155,223);fill-rule:nonzero;"/>
        <rect x="54.0833" y="54.0417" width="18.7083" height="18.7083" style="fill:rgb(0,155,223);fill-rule:nonzero;"/>
        <rect x="85.3056" y="54.0417" width="18.7083" height="18.7083" style="fill:rgb(0,155,223);fill-rule:nonzero;"/>
        <rect x="22.875" y="85.25" width="18.7083" height="18.7083" style="fill:rgb(0,155,223);fill-rule:nonzero;"/>
        <rect x="54.0833" y="85.25" width="18.7083" height="18.7083" style="fill:rgb(0,155,223);fill-rule:nonzero;"/>
        <rect x="85.3056" y="85.25" width="18.7083" height="18.7083" style="fill:rgb(0,155,223);fill-rule:nonzero;"/>
        <rect x="22.875" y="116.278" width="18.7083" height="18.7083" style="fill:rgb(0,155,223);fill-rule:nonzero;"/>
        <rect x="54.0833" y="116.278" width="18.7083" height="18.7083" style="fill:rgb(0,155,223);fill-rule:nonzero;"/>
        <rect x="85.3056" y="116.278" width="18.7083" height="18.7083" style="fill:rgb(0,155,223);fill-rule:nonzero;"/>
        <rect x="881.222" y="96.8056" width="18.7084" height="18.7083" style="fill:rgb(0,155,223);fill-rule:nonzero;"/>
    </g>
</svg>
