<svg xmlns="http://www.w3.org/2000/svg" width="100" height="53"><path d="M84.058 28.575a26.322 26.322 0 0110.32 1.96l1.355-3.326a44.861 44.861 0 00-11.4-1.363c-9.714 0-17.715 2.674-19.231 6.381-1.346 3.268 2.957 5.122 9.759 7.739 5.847 2.234 9.789 3.6 8.827 5.941-.982 2.4-6.047 4.089-12.235 4.089a24.65 24.65 0 01-11.7-2.726l-1.565 3.816A37 37 0 0070.78 53c10.416 0 19.257-3 20.954-7.142 1.456-3.544-3.223-5.505-10.778-8.34-5.255-1.962-8.82-3.217-7.933-5.4.834-2.015 5.54-3.54 11.035-3.54m-13.078-2.29l-5.561 2.671h-10.25l-9.63 23.44H37.23l9.63-23.44h-8.936L13.758 52.4H4.611L0 26.285h13.884l-1.064 2.671H9l1.348 20.77c1.446-1.8 3.656-4.091 6.139-6.7L32.234 26.29H70.98z" fill-rule="evenodd" fill="#707173"/><path data-name="Shape 2 copy" d="M51.978 8.054a58.7 58.7 0 00-11.917 9.8l.594.953a62.982 62.982 0 017.094-5.1C67.138 1.719 88.76 2.719 95.883 15.929a20.013 20.013 0 012.292 9.817l.968.221c1.45-5.7 1.127-11.2-1.32-15.78C91.039-2.52 70.445-3.481 51.978 8.049" fill="#fcaf17" fill-rule="evenodd"/></svg>